# xmcd
#
# Track frame offsets:
#	150
#	10240
#	20827
#	29522
#	45547
#	56124
#	67273
#	77268
#	87594
#	99431
#	111144
#	121652
#
# Disc length: 1778 seconds
#
# Revision: 0
# Processed by: cddbd v1.5.1PL0 Copyright (c) Steve Scherf et al.
# Submitted via: EasyCDDAExtractor 4.6.9.1
#
DISCID=9906f00c
DTITLE=Marty Robbins - R.F.D. Marty Robbins
DYEAR=1964
DGENRE=Country
TTITLE0=Melba From Melbourne
TTITLE1=Change That Dial
TTITLE2=Only A Picture Stops Time
TTITLE3=Southern Dixie Flyer
TTITLE4=Everybody's Darlin' Plus Mine
TTITLE5=She Means Nothing To Me Now
TTITLE6=Making Excuses
TTITLE7=Rainbows
TTITLE8=I Lived A Lifetime In A Day
TTITLE9=You Won't Have Her Long
TTITLE10=Things That I Don't Know
TTITLE11=Urgently Needed
EXTD=
EXTT0=
EXTT1=
EXTT2=
EXTT3=
EXTT4=
EXTT5=
EXTT6=
EXTT7=
EXTT8=
EXTT9=
EXTT10=
EXTT11=
PLAYORDER=
